<svg width="20" height="20" fill="none" xmlns="http://www.w3.org/2000/svg"><path d="M12.615.658l-.342-.365-.73.684.342.365.73-.684zM19 8.2l.495.07.034-.237-.164-.175L19 8.2zM17.456 19v.5h.434l.061-.43-.495-.07zM2.543 19l-.495.07.062.43h.433V19zM1 8.2l-.365-.342-.164.175.034.238L1 8.2zm7.115-6.858l.342-.365-.73-.684-.342.365.73.684zm3.77 0l6.75 7.2.73-.684-6.75-7.2-.73.684zm6.62 6.787l-1.544 10.8.99.142 1.544-10.8-.99-.142zM17.456 18.5H2.543v1h14.913v-1zm-14.418.43L1.495 8.13l-.99.14 1.543 10.8.99-.14zM1.365 8.541l6.75-7.2-.73-.684-6.75 7.2.73.684zM1 8.7h18v-1H1v1z" fill="#211E1D"/></svg>